<?xml version="1.0" standalone="no"?>
<!DOCTYPE svg PUBLIC "-//W3C//DTD SVG 20010904//EN"
 "http://www.w3.org/TR/2001/REC-SVG-20010904/DTD/svg10.dtd">
<svg version="1.0" xmlns="http://www.w3.org/2000/svg"
 width="600.000000pt" height="600.000000pt" viewBox="0 0 600.000000 600.000000"
 preserveAspectRatio="xMidYMid meet">
<metadata>
Created by potrace 1.14, written by Peter Selinger 2001-2017
</metadata>
<g transform="translate(0.000000,600.000000) scale(0.100000,-0.100000)"
fill="#000000" stroke="none">
<path d="M0 3000 l0 -3000 3000 0 3000 0 0 3000 0 3000 -3000 0 -3000 0 0
-3000z m1323 1445 c18 -8 619 -607 1337 -1330 l1305 -1315 594 0 593 0 -538
546 c-297 300 -544 556 -551 567 -15 28 -16 101 -2 130 6 12 268 280 583 594
l571 573 -625 0 -625 0 -430 -430 -431 -430 -46 0 c-56 0 -101 32 -118 85 -24
74 -29 69 448 547 245 246 461 455 478 463 28 13 138 15 828 15 863 0 840 1
884 -54 26 -34 36 -77 27 -124 -6 -32 -86 -117 -637 -669 l-631 -632 211 -218
c116 -120 380 -387 587 -593 216 -215 385 -392 397 -414 36 -71 9 -152 -63
-188 -31 -17 -91 -18 -804 -18 -715 0 -773 1 -802 17 -17 10 -617 609 -1334
1331 l-1304 1312 -292 0 -293 0 0 -1205 0 -1205 415 0 415 0 0 303 c0 276 2
306 20 344 27 60 71 85 137 80 l52 -4 369 -361 370 -362 331 0 c360 0 378 -2
419 -55 44 -55 20 -149 -44 -180 -46 -21 -758 -22 -807 -1 -18 8 -158 140
-312 295 l-280 281 -5 -249 c-5 -232 -6 -252 -26 -278 -11 -15 -36 -36 -55
-46 -31 -16 -76 -17 -596 -15 -550 3 -562 3 -590 24 -15 11 -36 36 -46 55 -16
32 -17 114 -15 1386 3 1349 3 1352 24 1380 46 63 49 63 482 63 330 0 399 -2
425 -15z"/>
</g>
</svg>
